<?xml version="1.0" encoding="utf-8"?>
<!-- Generator: Adobe Illustrator 25.4.1, SVG Export Plug-In . SVG Version: 6.00 Build 0)  -->
<svg version="1.1" id="Layer_1" xmlns="http://www.w3.org/2000/svg" xmlns:xlink="http://www.w3.org/1999/xlink" x="0px" y="0px"
	 viewBox="0 0 72 72" style="enable-background:new 0 0 72 72;" xml:space="preserve">
<g>
	<path d="M14.08,6.64c0-0.37-0.13-0.69-0.4-0.95c-0.27-0.27-0.59-0.4-0.95-0.4H3.14c-0.37,0-0.69,0.13-0.95,0.4
		c-0.27,0.27-0.4,0.59-0.4,0.95v32.42c0,0.37,0.13,0.69,0.4,0.95c0.27,0.27,0.58,0.4,0.95,0.4h9.59c0.37,0,0.69-0.13,0.95-0.4
		c0.27-0.27,0.4-0.59,0.4-0.95V28.32l0.01,0.02v-0.7H8.68c-0.26,0-0.48-0.09-0.66-0.28c-0.19-0.19-0.28-0.41-0.28-0.66v-3.81
		c0-0.26,0.09-0.48,0.28-0.66c0.19-0.19,0.41-0.28,0.66-0.28h5.42v-5.39l-0.01,0.02V6.64z"/>
	<path d="M19.98,15.82c0.19,0.19,0.28,0.41,0.28,0.66v5.46h4.61l8.94-15c0.1-0.17,0.15-0.38,0.15-0.63s-0.11-0.48-0.33-0.7
		c-0.22-0.22-0.48-0.33-0.78-0.33H21.76c-0.97,0-1.64,0.37-2.01,1.1l-5.17,9.29c0.14-0.08,0.29-0.14,0.46-0.14h4.27
		C19.57,15.54,19.79,15.63,19.98,15.82z"/>
	<path d="M27.59,36.15c-1.55-1.14-2.33-2.78-2.33-4.91c0-1.76,0.75-3.27,2.24-4.55l-0.95-1.6v1.61c0,0.26-0.09,0.48-0.28,0.66
		c-0.19,0.19-0.41,0.28-0.66,0.28h-5.35v5.63c0,0.26-0.09,0.48-0.28,0.66c-0.19,0.19-0.41,0.28-0.66,0.28h-1.93l2.82,5.04
		c0.4,0.77,1.09,1.15,2.06,1.15h11.44c0.3,0,0.56-0.11,0.78-0.33c0.22-0.22,0.33-0.45,0.33-0.7c0-0.25-0.05-0.46-0.15-0.63
		l-0.55-0.92c-0.12,0-0.23,0.01-0.36,0.01C31.2,37.86,29.15,37.29,27.59,36.15z"/>
	<g>
		<path d="M32.22,30.66c0,0.56,0.2,1,0.59,1.32c0.39,0.32,0.92,0.48,1.58,0.48c0.66,0,1.2-0.12,1.63-0.36l-2.81-2.72
			C32.55,29.67,32.22,30.1,32.22,30.66z"/>
		<path d="M35.31,20.32c-0.33,0-0.61,0.11-0.85,0.32c-0.23,0.21-0.35,0.52-0.35,0.92s0.29,0.85,0.86,1.37c1-0.43,1.5-0.93,1.5-1.5
			c0-0.33-0.11-0.59-0.33-0.8C35.91,20.42,35.64,20.32,35.31,20.32z"/>
		<path d="M70.83,5.61c-0.22-0.22-0.48-0.33-0.78-0.33h-9.44c-1,0-1.71,0.42-2.11,1.26l-3.9,7.84h1.75c0.25,0,0.46,0.09,0.64,0.27
			c0.18,0.18,0.27,0.39,0.27,0.64v12.65c0,0.25-0.09,0.46-0.27,0.64c-0.18,0.18-0.39,0.27-0.64,0.27h-5.82
			c-0.25,0-0.46-0.09-0.64-0.27c-0.18-0.18-0.27-0.39-0.27-0.64V15.28c0-0.25,0.09-0.46,0.27-0.64c0.18-0.18,0.39-0.27,0.64-0.27
			h1.83l-3.9-7.84c-0.4-0.84-1.11-1.26-2.11-1.26h-9.44c-0.3,0-0.56,0.11-0.78,0.33c-0.22,0.22-0.33,0.44-0.33,0.68
			c0,0.23,0.03,0.42,0.1,0.55l5.68,11.24c0.35,0.47,0.59,0.97,0.76,1.5l0.28,0.55l-0.18-0.34c0,0,0.13,0.51,0.14,1.23
			c0,0.01,0,0.01,0,0.02c0,0.01,0,0.01,0,0.02c0.01,0.89-0.18,2.09-1.06,3.09c-0.1,0.11-0.19,0.2-0.28,0.3
			c-0.14,0.16-0.29,0.31-0.45,0.46c-1.27,1.23-2.25,1.66-2.25,1.66l2.36,2.31c0.53-0.52,1.05-1.34,1.56-2.46
			c0.08-0.2,0.3-0.3,0.64-0.3h2.52l0.04,0l0,0h2.26c0.17,0,0.31,0.05,0.41,0.15c0.11,0.1,0.16,0.23,0.16,0.39
			c0,0.58-0.43,1.49-1.29,2.73c0,0-0.01,0.01-0.01,0.01v5.87l1.3,1.47c0.13,0.14,0.19,0.29,0.19,0.47c0,0.17-0.06,0.32-0.18,0.43
			c-0.12,0.12-0.25,0.17-0.4,0.17h-0.92v1.24c0,0.37,0.13,0.69,0.4,0.95c0.27,0.27,0.59,0.4,0.95,0.4h9.84
			c0.37,0,0.69-0.13,0.95-0.4c0.27-0.27,0.4-0.59,0.4-0.95v-9.89L71.05,6.84c0.07-0.13,0.1-0.32,0.1-0.55
			C71.15,6.05,71.04,5.83,70.83,5.61z M57.26,36.9c0,0.25-0.09,0.46-0.27,0.64c-0.18,0.18-0.39,0.27-0.64,0.27h-5.82
			c-0.25,0-0.46-0.09-0.64-0.27c-0.18-0.18-0.27-0.39-0.27-0.64v-5.82c0-0.25,0.09-0.46,0.27-0.64c0.18-0.18,0.39-0.27,0.64-0.27
			h5.82c0.25,0,0.46,0.09,0.64,0.27c0.18,0.18,0.27,0.39,0.27,0.64V36.9z"/>
	</g>
</g>
</svg>
